<svg width="1464" height="106" viewBox="0 0 1464 106" fill="none" xmlns="http://www.w3.org/2000/svg">
<g clip-path="url(#clip0_2_2)">
<rect width="1464" height="106" fill="white"/>
<path d="M0 -23H1464V67H0V-23Z" fill="#FFFAE5"/>
<ellipse cx="215" cy="42.5" rx="4" ry="3.5" fill="#FFC925"/>
<ellipse cx="18" cy="19.5" rx="4" ry="3.5" fill="#FFC925"/>
<ellipse cx="457" cy="19.5" rx="4" ry="3.5" fill="#FFC925"/>
<ellipse cx="603" cy="35.5" rx="4" ry="3.5" fill="#FFC925"/>
<ellipse cx="695" cy="49.5" rx="4" ry="3.5" fill="#FFC925"/>
<ellipse cx="887" cy="42.5" rx="4" ry="3.5" fill="#FFC925"/>
<ellipse cx="1159" cy="24.5" rx="4" ry="3.5" fill="#FFC925"/>
<ellipse cx="1272" cy="31.5" rx="4" ry="3.5" fill="#FFC925"/>
<ellipse cx="1428" cy="41.5" rx="4" ry="3.5" fill="#FFC925"/>
<ellipse cx="1351" cy="52" rx="8" ry="7" fill="#FFC925"/>
<ellipse cx="1029" cy="56" rx="8" ry="7" fill="#FFC925"/>
<ellipse cx="757" cy="24" rx="8" ry="7" fill="#FFC925"/>
<ellipse cx="303" cy="35" rx="8" ry="7" fill="#FFC925"/>
</g>
<defs>
<clipPath id="clip0_2_2">
<rect width="1464" height="106" fill="white"/>
</clipPath>
</defs>
</svg>
