<svg width="1468" height="152" viewBox="0 0 1468 152" fill="none" xmlns="http://www.w3.org/2000/svg">
<g clip-path="url(#clip0_2_2)">
<rect width="1468" height="152" fill="white"/>
<path d="M0 -23H1464V67H0V-23Z" fill="#FFFAE5"/>
<ellipse cx="215" cy="42.5" rx="4" ry="3.5" fill="#FFC925"/>
<ellipse cx="18" cy="19.5" rx="4" ry="3.5" fill="#FFC925"/>
<ellipse cx="457" cy="19.5" rx="4" ry="3.5" fill="#FFC925"/>
<ellipse cx="603" cy="35.5" rx="4" ry="3.5" fill="#FFC925"/>
<ellipse cx="695" cy="49.5" rx="4" ry="3.5" fill="#FFC925"/>
<ellipse cx="887" cy="42.5" rx="4" ry="3.5" fill="#FFC925"/>
<ellipse cx="1159" cy="24.5" rx="4" ry="3.5" fill="#FFC925"/>
<ellipse cx="1272" cy="31.5" rx="4" ry="3.5" fill="#FFC925"/>
<ellipse cx="1428" cy="41.5" rx="4" ry="3.5" fill="#FFC925"/>
<ellipse cx="1351" cy="52" rx="8" ry="7" fill="#FFC925"/>
<ellipse cx="1029" cy="56" rx="8" ry="7" fill="#FFC925"/>
<ellipse cx="757" cy="24" rx="8" ry="7" fill="#FFC925"/>
<ellipse cx="303" cy="35" rx="8" ry="7" fill="#FFC925"/>
<path d="M49.8809 11.5957C50.6816 11.5957 51.3848 11.651 51.9902 11.7617C52.5957 11.8659 53.4193 12.0384 54.4609 12.2793L54.1973 15.5801L52.6152 15.502L52.5566 14.5645C52.5566 14.4342 52.4785 14.1608 52.3223 13.7441C51.4173 13.5553 50.6035 13.4609 49.8809 13.4609C48.6113 13.4609 47.6706 13.9655 47.0586 14.9746C46.4466 15.9772 46.1406 17.2988 46.1406 18.9395C46.1406 20.5931 46.4434 21.9245 47.0488 22.9336C47.6543 23.9362 48.5918 24.4375 49.8613 24.4375C50.4603 24.4375 51.1146 24.3854 51.8242 24.2812C51.9154 23.8516 51.9609 23.5716 51.9609 23.4414V22.084C51.9609 21.9082 51.9349 21.6836 51.8828 21.4102C51.8307 21.1367 51.7884 20.9544 51.7559 20.8633L49.6367 20.6973L49.7441 18.7441H51.9609C52.3906 18.7441 52.8366 18.7344 53.2988 18.7148C53.7676 18.6888 54.0866 18.6758 54.2559 18.6758L54.8223 19.1836C54.7962 19.3984 54.7572 19.8314 54.7051 20.4824C54.6595 21.1335 54.6367 21.6673 54.6367 22.084V25.6191C53.7057 25.834 52.8789 26 52.1562 26.1172C51.4401 26.2409 50.6816 26.3027 49.8809 26.3027C48.2923 26.3027 46.9479 26 45.8477 25.3945C44.7474 24.7826 43.9206 23.9232 43.3672 22.8164C42.8138 21.7096 42.5371 20.4238 42.5371 18.959C42.5371 17.4941 42.8138 16.2083 43.3672 15.1016C43.9206 13.9948 44.7474 13.1354 45.8477 12.5234C46.9479 11.9049 48.2923 11.5957 49.8809 11.5957ZM69.1289 26.0977C68.9401 26.0846 68.4909 26.0651 67.7812 26.0391C67.0781 26.013 66.2513 26 65.3008 26C65.2227 25.7982 65.0664 25.4108 64.832 24.8379C64.5977 24.265 64.4284 23.8776 64.3242 23.6758L62.6641 20.4629H62.3613C62.1335 20.4629 61.8405 20.4434 61.4824 20.4043V22.1426C61.4824 22.8522 61.5443 23.6237 61.668 24.457L62.9668 24.584L62.8691 26.0977C62.6803 26.0846 62.2214 26.0651 61.4922 26.0391C60.7695 26.013 59.9329 26 58.9824 26C58.5983 26 58.1979 26.013 57.7812 26.0391C57.3711 26.0651 57.1042 26.0846 56.9805 26.0977L56.8828 24.7012L58.2012 24.457C58.2142 24.3789 58.2467 24.125 58.2988 23.6953C58.3574 23.2591 58.3867 22.9401 58.3867 22.7383V15.7559C58.3867 15.0332 58.3249 14.2943 58.2012 13.5391L56.9023 13.3047L57 11.8008C57.1172 11.8138 57.3874 11.8333 57.8105 11.8594C58.2337 11.8854 58.6504 11.8984 59.0605 11.8984C59.3405 11.8984 59.7116 11.8854 60.1738 11.8594C60.6361 11.8333 60.9714 11.8138 61.1797 11.8008C62.0065 11.7357 62.6738 11.7031 63.1816 11.7031C64.5944 11.7031 65.7272 12.0807 66.5801 12.8359C67.4395 13.5846 67.8691 14.6133 67.8691 15.9219C67.8691 16.7487 67.651 17.4844 67.2148 18.1289C66.7786 18.7734 66.1895 19.304 65.4473 19.7207C65.929 20.6777 66.3913 21.5111 66.834 22.2207C67.2832 22.9238 67.5273 23.3112 67.5664 23.3828L68.2598 24.4961L69.2266 24.584L69.1289 26.0977ZM61.9609 18.7832C62.8919 18.7832 63.5723 18.5488 64.002 18.0801C64.4316 17.6113 64.6465 16.9049 64.6465 15.9609C64.6465 15.082 64.4316 14.4277 64.002 13.998C63.5788 13.5618 62.918 13.3438 62.0195 13.3438L61.5996 13.3633C61.5215 14.1641 61.4824 14.763 61.4824 15.1602V18.7832H61.9609ZM82.4688 26.0977C82.3581 26.0846 82.1237 26.0651 81.7656 26.0391C81.4076 26.013 81.082 26 80.7891 26C79.7995 26 78.9206 26.013 78.1523 26.0391C77.3906 26.0651 76.9089 26.0846 76.707 26.0977L76.6094 24.6426L77.791 24.457L77.6836 23.4219L77.4102 22.416H73.6309L73.2891 23.6953L73.1719 24.457L74.3242 24.7012L74.2266 26.0977C74.0964 26.0846 73.8066 26.0651 73.3574 26.0391C72.9082 26.013 72.4915 26 72.1074 26C71.3978 26 70.7891 26.013 70.2812 26.0391C69.7799 26.0651 69.4609 26.0846 69.3242 26.0977L69.2266 24.6426L70.125 24.4961L70.9648 22.7773L74.7441 11.8984L76.9902 11.6836L80.9844 23.4414L81.4434 24.5156L82.5664 24.7012L82.4688 26.0977ZM75.6035 16.0391L74.168 20.7754L76.8828 20.7363L75.6035 16.0391ZM93.7871 25.6191C92.9082 25.834 92.127 26 91.4434 26.1172C90.7663 26.2409 90.0469 26.3027 89.2852 26.3027C87.7682 26.3027 86.4857 26 85.4375 25.3945C84.3893 24.7826 83.6016 23.9232 83.0742 22.8164C82.5469 21.7096 82.2832 20.4238 82.2832 18.959C82.2832 17.4941 82.5469 16.2083 83.0742 15.1016C83.6016 13.9948 84.3926 13.1354 85.4473 12.5234C86.502 11.9049 87.7812 11.5957 89.2852 11.5957C90.0339 11.5957 90.6979 11.651 91.2773 11.7617C91.8568 11.8659 92.6315 12.0384 93.6016 12.2793L93.3672 15.8633L91.8242 15.7754L91.7656 14.5645C91.7656 14.4342 91.6842 14.1608 91.5215 13.7441C90.6686 13.5553 89.9232 13.4609 89.2852 13.4609C88.1263 13.4609 87.2702 13.9622 86.7168 14.9648C86.1634 15.9609 85.8867 17.2858 85.8867 18.9395C85.8867 20.5931 86.1602 21.9245 86.707 22.9336C87.2539 23.9362 88.1068 24.4375 89.2656 24.4375C90.0273 24.4375 90.8542 24.3398 91.7461 24.1445C91.7721 24.0794 91.8307 23.9199 91.9219 23.666C92.0195 23.4056 92.0684 23.2363 92.0684 23.1582L92.127 22.2207L93.6309 22.1816L93.7871 25.6191ZM100.262 13.5391C100.223 13.7539 100.18 14.0306 100.135 14.3691C100.096 14.7077 100.076 14.9714 100.076 15.1602V22.1426C100.076 22.8522 100.138 23.6237 100.262 24.457L101.561 24.584L101.463 26.0977C101.274 26.0846 100.815 26.0651 100.086 26.0391C99.3633 26.013 98.5267 26 97.5762 26C97.1921 26 96.7917 26.013 96.375 26.0391C95.9648 26.0651 95.7012 26.0846 95.584 26.0977L95.4766 24.7012L96.8047 24.457C96.8177 24.3789 96.8503 24.125 96.9023 23.6953C96.9544 23.2591 96.9805 22.9401 96.9805 22.7383V15.7559C96.9805 15.1699 96.9512 14.6654 96.8926 14.2422C96.834 13.8125 96.8047 13.5781 96.8047 13.5391L95.4961 13.3047L95.6035 11.8008C95.7207 11.8138 95.9844 11.8333 96.3945 11.8594C96.8112 11.8854 97.2116 11.8984 97.5957 11.8984C98.5397 11.8984 99.3763 11.8854 100.105 11.8594C100.835 11.8333 101.294 11.8138 101.482 11.8008L101.58 13.4219L100.262 13.5391ZM118.123 11.8008C117.928 11.8138 117.495 11.8333 116.824 11.8594C116.16 11.8854 115.486 11.8984 114.803 11.8984L112.811 11.8008L112.703 13.3047L114.002 13.5391C114.119 14.4961 114.181 15.235 114.188 15.7559V21.4004L109.783 15.2578C109.666 15.069 109.383 14.597 108.934 13.8418C108.491 13.0801 108.188 12.5658 108.025 12.2988L107.645 11.8984H105.604C105.219 11.8984 104.819 11.8854 104.402 11.8594C103.992 11.8333 103.725 11.8138 103.602 11.8008L103.504 13.3047L104.803 13.5391C104.842 13.7409 104.881 14.0566 104.92 14.4863C104.965 14.9095 104.988 15.3327 104.988 15.7559V22.7383C104.988 22.9141 104.962 23.1973 104.91 23.5879C104.865 23.972 104.829 24.2617 104.803 24.457L103.484 24.7012L103.582 26.0977C103.699 26.0846 103.966 26.0651 104.383 26.0391C104.799 26.013 105.2 26 105.584 26C106.528 26 107.283 26.013 107.85 26.0391C108.423 26.0651 108.774 26.0846 108.904 26.0977L109.002 24.584L107.703 24.457C107.703 24.418 107.674 24.1641 107.615 23.6953C107.557 23.2201 107.527 22.7025 107.527 22.1426V16.9961L114.021 26H116.727V22.1426V15.1602C116.727 14.9844 116.749 14.7207 116.795 14.3691C116.84 14.0176 116.876 13.7409 116.902 13.5391L118.23 13.4219L118.123 11.8008ZM132.938 13.5391C132.898 13.7539 132.859 14.0306 132.82 14.3691C132.781 14.7077 132.762 14.9714 132.762 15.1602V22.1426C132.762 22.8522 132.82 23.6237 132.938 24.457L134.236 24.584L134.139 26.0977C133.95 26.0846 133.491 26.0651 132.762 26.0391C132.039 26.013 131.206 26 130.262 26C129.878 26 129.477 26.013 129.061 26.0391C128.65 26.0651 128.383 26.0846 128.26 26.0977L128.162 24.7012L129.48 24.457C129.493 24.3789 129.526 24.125 129.578 23.6953C129.63 23.2591 129.656 22.9401 129.656 22.7383V19.9648H124.119V22.1426C124.119 22.8522 124.181 23.6237 124.305 24.457L125.604 24.584L125.506 26.0977C125.317 26.0846 124.858 26.0651 124.129 26.0391C123.406 26.013 122.57 26 121.619 26C121.235 26 120.835 26.013 120.418 26.0391C120.008 26.0651 119.741 26.0846 119.617 26.0977L119.52 24.7012L120.838 24.457C120.851 24.3789 120.883 24.125 120.936 23.6953C120.994 23.2591 121.023 22.9401 121.023 22.7383V15.7559C121.023 15.1699 120.991 14.6654 120.926 14.2422C120.867 13.8125 120.838 13.5781 120.838 13.5391L119.539 13.3047L119.637 11.8008C119.754 11.8138 120.021 11.8333 120.438 11.8594C120.854 11.8854 121.255 11.8984 121.639 11.8984C122.583 11.8984 123.419 11.8854 124.148 11.8594C124.878 11.8333 125.337 11.8138 125.525 11.8008L125.623 13.4219L124.305 13.5391C124.266 13.7539 124.223 14.0306 124.178 14.3691C124.139 14.7077 124.119 14.9714 124.119 15.1602V18.2168L129.656 18.1387V15.7559C129.656 15.1699 129.627 14.6654 129.568 14.2422C129.51 13.8125 129.48 13.5781 129.48 13.5391L128.182 13.3047L128.279 11.8008C128.396 11.8138 128.663 11.8333 129.08 11.8594C129.497 11.8854 129.897 11.8984 130.281 11.8984C131.225 11.8984 132.062 11.8854 132.791 11.8594C133.52 11.8333 133.976 11.8138 134.158 11.8008L134.266 13.4219L132.938 13.5391ZM148.426 26.0977C148.315 26.0846 148.081 26.0651 147.723 26.0391C147.365 26.013 147.039 26 146.746 26C145.757 26 144.878 26.013 144.109 26.0391C143.348 26.0651 142.866 26.0846 142.664 26.0977L142.566 24.6426L143.748 24.457L143.641 23.4219L143.367 22.416H139.588L139.246 23.6953L139.129 24.457L140.281 24.7012L140.184 26.0977C140.053 26.0846 139.764 26.0651 139.314 26.0391C138.865 26.013 138.449 26 138.064 26C137.355 26 136.746 26.013 136.238 26.0391C135.737 26.0651 135.418 26.0846 135.281 26.0977L135.184 24.6426L136.082 24.4961L136.922 22.7773L140.701 11.8984L142.947 11.6836L146.941 23.4414L147.4 24.5156L148.523 24.7012L148.426 26.0977ZM141.561 16.0391L140.125 20.7754L142.84 20.7363L141.561 16.0391Z" fill="#03A688"/>
<path d="M77.041 49.6191C76.1621 49.834 75.3809 50 74.6973 50.1172C74.0202 50.2409 73.3008 50.3027 72.5391 50.3027C71.0221 50.3027 69.7396 50 68.6914 49.3945C67.6432 48.7826 66.8555 47.9232 66.3281 46.8164C65.8008 45.7096 65.5371 44.4238 65.5371 42.959C65.5371 41.4941 65.8008 40.2083 66.3281 39.1016C66.8555 37.9948 67.6465 37.1354 68.7012 36.5234C69.7559 35.9049 71.0352 35.5957 72.5391 35.5957C73.2878 35.5957 73.9518 35.651 74.5312 35.7617C75.1107 35.8659 75.8854 36.0384 76.8555 36.2793L76.6211 39.8633L75.0781 39.7754L75.0195 38.5645C75.0195 38.4342 74.9382 38.1608 74.7754 37.7441C73.9225 37.5553 73.1771 37.4609 72.5391 37.4609C71.3802 37.4609 70.5241 37.9622 69.9707 38.9648C69.4173 39.9609 69.1406 41.2858 69.1406 42.9395C69.1406 44.5931 69.4141 45.9245 69.9609 46.9336C70.5078 47.9362 71.3607 48.4375 72.5195 48.4375C73.2812 48.4375 74.1081 48.3398 75 48.1445C75.026 48.0794 75.0846 47.9199 75.1758 47.666C75.2734 47.4056 75.3223 47.2363 75.3223 47.1582L75.3809 46.2207L76.8848 46.1816L77.041 49.6191ZM90.9961 50.0977C90.8854 50.0846 90.651 50.0651 90.293 50.0391C89.9349 50.013 89.6094 50 89.3164 50C88.3268 50 87.4479 50.013 86.6797 50.0391C85.918 50.0651 85.4362 50.0846 85.2344 50.0977L85.1367 48.6426L86.3184 48.457L86.2109 47.4219L85.9375 46.416H82.1582L81.8164 47.6953L81.6992 48.457L82.8516 48.7012L82.7539 50.0977C82.6237 50.0846 82.334 50.0651 81.8848 50.0391C81.4355 50.013 81.0189 50 80.6348 50C79.9251 50 79.3164 50.013 78.8086 50.0391C78.3073 50.0651 77.9883 50.0846 77.8516 50.0977L77.7539 48.6426L78.6523 48.4961L79.4922 46.7773L83.2715 35.8984L85.5176 35.6836L89.5117 47.4414L89.9707 48.5156L91.0938 48.7012L90.9961 50.0977ZM84.1309 40.0391L82.6953 44.7754L85.4102 44.7363L84.1309 40.0391ZM97.9102 35.8008C97.7279 35.8138 97.2754 35.8333 96.5527 35.8594C95.8366 35.8854 95.0098 35.8984 94.0723 35.8984C93.6751 35.8984 93.2812 35.8854 92.8906 35.8594C92.5065 35.8333 92.2624 35.8138 92.1582 35.8008L92.0508 37.3047L93.291 37.5391C93.291 37.5781 93.3203 37.8125 93.3789 38.2422C93.444 38.6654 93.4766 39.1699 93.4766 39.7559V46.7383C93.4766 46.9401 93.4473 47.2591 93.3887 47.6953C93.3366 48.125 93.304 48.3789 93.291 48.457L92.0312 48.7012L92.1387 50.0977C92.2428 50.0846 92.487 50.0651 92.8711 50.0391C93.2617 50.013 93.6556 50 94.0527 50C94.9837 50 95.8073 50.013 96.5234 50.0391C97.2396 50.0651 97.6888 50.0846 97.8711 50.0977L97.9785 48.584L96.7578 48.457C96.6406 47.6172 96.5788 46.8457 96.5723 46.1426V39.1602C96.5723 38.9714 96.5918 38.7077 96.6309 38.3691C96.6699 38.0306 96.7122 37.7539 96.7578 37.5391L98.0176 37.4219L97.9102 35.8008ZM106.094 50.0977C105.879 50.0846 105.384 50.0651 104.609 50.0391C103.841 50.013 102.988 50 102.051 50C101.654 50 101.263 50.013 100.879 50.0391C100.501 50.0651 100.26 50.0846 100.156 50.0977L100.059 48.7012L100.83 48.5352C100.257 47.6172 99.8665 47.0117 99.6582 46.7188C99.4824 46.5169 99.0039 45.9245 98.2227 44.9414C97.4414 43.9518 96.9173 43.2845 96.6504 42.9395L99.8926 38.457L100.459 37.4219L99.834 37.3047L99.9316 35.8008C100.036 35.8138 100.283 35.8333 100.674 35.8594C101.071 35.8854 101.471 35.8984 101.875 35.8984C102.793 35.8984 103.542 35.8854 104.121 35.8594C104.701 35.8333 105.059 35.8138 105.195 35.8008L105.293 37.4219L104.131 37.5391C103.519 38.125 103.014 38.6393 102.617 39.082L100.039 42.5977L101.475 44.2773L104.131 47.4219C104.235 47.5521 104.603 47.8971 105.234 48.457L106.191 48.584L106.094 50.0977ZM107.109 35.8008C107.259 35.8138 107.555 35.8333 107.998 35.8594C108.447 35.8854 108.818 35.8984 109.111 35.8984H114.473C114.648 35.8984 115.023 35.8724 115.596 35.8203C116.169 35.7682 116.556 35.7292 116.758 35.7031L117.129 36.0645L117.275 39.1797L115.83 39.2773C115.752 38.6393 115.693 38.2454 115.654 38.0957C115.615 37.9199 115.547 37.7604 115.449 37.6172C114.915 37.5651 114.391 37.5391 113.877 37.5391H111.67C111.618 38.4961 111.592 39.0365 111.592 39.1602V42.0215C111.722 42.0345 111.895 42.041 112.109 42.041H113.232C113.408 42.041 113.584 42.0182 113.76 41.9727C113.942 41.9271 114.059 41.888 114.111 41.8555L114.297 40.5762L115.537 40.6836L115.518 42.3438C115.518 42.8906 115.524 43.4082 115.537 43.8965C115.55 44.3783 115.563 44.707 115.576 44.8828L114.297 45L114.111 43.7988C114.02 43.7858 113.825 43.763 113.525 43.7305C113.226 43.6979 112.995 43.6816 112.832 43.6816H112.217C111.898 43.6816 111.689 43.6882 111.592 43.7012V46.1426C111.592 46.7546 111.611 47.4609 111.65 48.2617H114.15C114.645 48.2617 115.16 48.2064 115.693 48.0957C115.869 47.7767 115.996 47.4902 116.074 47.2363C116.191 46.7806 116.273 46.403 116.318 46.1035L117.715 46.2012L117.412 49.7168L117.031 50.0781C116.829 50.0651 116.484 50.0488 115.996 50.0293C115.514 50.0098 115.101 50 114.756 50H109.111C108.63 50.013 108.203 50.0293 107.832 50.0488C107.461 50.0684 107.214 50.0846 107.09 50.0977L106.992 48.7012L108.311 48.457C108.337 48.3529 108.372 48.0924 108.418 47.6758C108.47 47.2526 108.496 46.9401 108.496 46.7383V39.7559C108.496 38.7793 108.434 38.0404 108.311 37.5391L107.012 37.3047L107.109 35.8008Z" fill="#F2226E"/>
</g>
<defs>
<clipPath id="clip0_2_2">
<rect width="1468" height="152" fill="white"/>
</clipPath>
</defs>
</svg>
