<svg width="162" height="67" viewBox="0 0 162 67" fill="none" xmlns="http://www.w3.org/2000/svg">
<g clip-path="url(#clip0_2_2)">
<rect width="162" height="67" fill="white"/>
<g clip-path="url(#clip1_2_2)">
<rect width="175" height="78" transform="translate(-13)" fill="white"/>
<path d="M-13 0H176V67H-13V0Z" fill="#FFFAE5"/>
<path d="M36.8809 11.5957C37.6816 11.5957 38.3848 11.651 38.9902 11.7617C39.5957 11.8659 40.4193 12.0384 41.4609 12.2793L41.1973 15.5801L39.6152 15.502L39.5566 14.5645C39.5566 14.4342 39.4785 14.1608 39.3223 13.7441C38.4173 13.5553 37.6035 13.4609 36.8809 13.4609C35.6113 13.4609 34.6706 13.9655 34.0586 14.9746C33.4466 15.9772 33.1406 17.2988 33.1406 18.9395C33.1406 20.5931 33.4434 21.9245 34.0488 22.9336C34.6543 23.9362 35.5918 24.4375 36.8613 24.4375C37.4603 24.4375 38.1146 24.3854 38.8242 24.2812C38.9154 23.8516 38.9609 23.5716 38.9609 23.4414V22.084C38.9609 21.9082 38.9349 21.6836 38.8828 21.4102C38.8307 21.1367 38.7884 20.9544 38.7559 20.8633L36.6367 20.6973L36.7441 18.7441H38.9609C39.3906 18.7441 39.8366 18.7344 40.2988 18.7148C40.7676 18.6888 41.0866 18.6758 41.2559 18.6758L41.8223 19.1836C41.7962 19.3984 41.7572 19.8314 41.7051 20.4824C41.6595 21.1335 41.6367 21.6673 41.6367 22.084V25.6191C40.7057 25.834 39.8789 26 39.1562 26.1172C38.4401 26.2409 37.6816 26.3027 36.8809 26.3027C35.2923 26.3027 33.9479 26 32.8477 25.3945C31.7474 24.7826 30.9206 23.9232 30.3672 22.8164C29.8138 21.7096 29.5371 20.4238 29.5371 18.959C29.5371 17.4941 29.8138 16.2083 30.3672 15.1016C30.9206 13.9948 31.7474 13.1354 32.8477 12.5234C33.9479 11.9049 35.2923 11.5957 36.8809 11.5957ZM56.1289 26.0977C55.9401 26.0846 55.4909 26.0651 54.7812 26.0391C54.0781 26.013 53.2513 26 52.3008 26C52.2227 25.7982 52.0664 25.4108 51.832 24.8379C51.5977 24.265 51.4284 23.8776 51.3242 23.6758L49.6641 20.4629H49.3613C49.1335 20.4629 48.8405 20.4434 48.4824 20.4043V22.1426C48.4824 22.8522 48.5443 23.6237 48.668 24.457L49.9668 24.584L49.8691 26.0977C49.6803 26.0846 49.2214 26.0651 48.4922 26.0391C47.7695 26.013 46.9329 26 45.9824 26C45.5983 26 45.1979 26.013 44.7812 26.0391C44.3711 26.0651 44.1042 26.0846 43.9805 26.0977L43.8828 24.7012L45.2012 24.457C45.2142 24.3789 45.2467 24.125 45.2988 23.6953C45.3574 23.2591 45.3867 22.9401 45.3867 22.7383V15.7559C45.3867 15.0332 45.3249 14.2943 45.2012 13.5391L43.9023 13.3047L44 11.8008C44.1172 11.8138 44.3874 11.8333 44.8105 11.8594C45.2337 11.8854 45.6504 11.8984 46.0605 11.8984C46.3405 11.8984 46.7116 11.8854 47.1738 11.8594C47.6361 11.8333 47.9714 11.8138 48.1797 11.8008C49.0065 11.7357 49.6738 11.7031 50.1816 11.7031C51.5944 11.7031 52.7272 12.0807 53.5801 12.8359C54.4395 13.5846 54.8691 14.6133 54.8691 15.9219C54.8691 16.7487 54.651 17.4844 54.2148 18.1289C53.7786 18.7734 53.1895 19.304 52.4473 19.7207C52.929 20.6777 53.3913 21.5111 53.834 22.2207C54.2832 22.9238 54.5273 23.3112 54.5664 23.3828L55.2598 24.4961L56.2266 24.584L56.1289 26.0977ZM48.9609 18.7832C49.8919 18.7832 50.5723 18.5488 51.002 18.0801C51.4316 17.6113 51.6465 16.9049 51.6465 15.9609C51.6465 15.082 51.4316 14.4277 51.002 13.998C50.5788 13.5618 49.918 13.3438 49.0195 13.3438L48.5996 13.3633C48.5215 14.1641 48.4824 14.763 48.4824 15.1602V18.7832H48.9609ZM69.4688 26.0977C69.3581 26.0846 69.1237 26.0651 68.7656 26.0391C68.4076 26.013 68.082 26 67.7891 26C66.7995 26 65.9206 26.013 65.1523 26.0391C64.3906 26.0651 63.9089 26.0846 63.707 26.0977L63.6094 24.6426L64.791 24.457L64.6836 23.4219L64.4102 22.416H60.6309L60.2891 23.6953L60.1719 24.457L61.3242 24.7012L61.2266 26.0977C61.0964 26.0846 60.8066 26.0651 60.3574 26.0391C59.9082 26.013 59.4915 26 59.1074 26C58.3978 26 57.7891 26.013 57.2812 26.0391C56.7799 26.0651 56.4609 26.0846 56.3242 26.0977L56.2266 24.6426L57.125 24.4961L57.9648 22.7773L61.7441 11.8984L63.9902 11.6836L67.9844 23.4414L68.4434 24.5156L69.5664 24.7012L69.4688 26.0977ZM62.6035 16.0391L61.168 20.7754L63.8828 20.7363L62.6035 16.0391ZM80.7871 25.6191C79.9082 25.834 79.127 26 78.4434 26.1172C77.7663 26.2409 77.0469 26.3027 76.2852 26.3027C74.7682 26.3027 73.4857 26 72.4375 25.3945C71.3893 24.7826 70.6016 23.9232 70.0742 22.8164C69.5469 21.7096 69.2832 20.4238 69.2832 18.959C69.2832 17.4941 69.5469 16.2083 70.0742 15.1016C70.6016 13.9948 71.3926 13.1354 72.4473 12.5234C73.502 11.9049 74.7812 11.5957 76.2852 11.5957C77.0339 11.5957 77.6979 11.651 78.2773 11.7617C78.8568 11.8659 79.6315 12.0384 80.6016 12.2793L80.3672 15.8633L78.8242 15.7754L78.7656 14.5645C78.7656 14.4342 78.6842 14.1608 78.5215 13.7441C77.6686 13.5553 76.9232 13.4609 76.2852 13.4609C75.1263 13.4609 74.2702 13.9622 73.7168 14.9648C73.1634 15.9609 72.8867 17.2858 72.8867 18.9395C72.8867 20.5931 73.1602 21.9245 73.707 22.9336C74.2539 23.9362 75.1068 24.4375 76.2656 24.4375C77.0273 24.4375 77.8542 24.3398 78.7461 24.1445C78.7721 24.0794 78.8307 23.9199 78.9219 23.666C79.0195 23.4056 79.0684 23.2363 79.0684 23.1582L79.127 22.2207L80.6309 22.1816L80.7871 25.6191ZM87.2617 13.5391C87.2227 13.7539 87.1803 14.0306 87.1348 14.3691C87.0957 14.7077 87.0762 14.9714 87.0762 15.1602V22.1426C87.0762 22.8522 87.138 23.6237 87.2617 24.457L88.5605 24.584L88.4629 26.0977C88.2741 26.0846 87.8151 26.0651 87.0859 26.0391C86.3633 26.013 85.5267 26 84.5762 26C84.1921 26 83.7917 26.013 83.375 26.0391C82.9648 26.0651 82.7012 26.0846 82.584 26.0977L82.4766 24.7012L83.8047 24.457C83.8177 24.3789 83.8503 24.125 83.9023 23.6953C83.9544 23.2591 83.9805 22.9401 83.9805 22.7383V15.7559C83.9805 15.1699 83.9512 14.6654 83.8926 14.2422C83.834 13.8125 83.8047 13.5781 83.8047 13.5391L82.4961 13.3047L82.6035 11.8008C82.7207 11.8138 82.9844 11.8333 83.3945 11.8594C83.8112 11.8854 84.2116 11.8984 84.5957 11.8984C85.5397 11.8984 86.3763 11.8854 87.1055 11.8594C87.8346 11.8333 88.2936 11.8138 88.4824 11.8008L88.5801 13.4219L87.2617 13.5391ZM105.123 11.8008C104.928 11.8138 104.495 11.8333 103.824 11.8594C103.16 11.8854 102.486 11.8984 101.803 11.8984L99.8105 11.8008L99.7031 13.3047L101.002 13.5391C101.119 14.4961 101.181 15.235 101.188 15.7559V21.4004L96.7832 15.2578C96.666 15.069 96.3828 14.597 95.9336 13.8418C95.4909 13.0801 95.1882 12.5658 95.0254 12.2988L94.6445 11.8984H92.6035C92.2194 11.8984 91.819 11.8854 91.4023 11.8594C90.9922 11.8333 90.7253 11.8138 90.6016 11.8008L90.5039 13.3047L91.8027 13.5391C91.8418 13.7409 91.8809 14.0566 91.9199 14.4863C91.9655 14.9095 91.9883 15.3327 91.9883 15.7559V22.7383C91.9883 22.9141 91.9622 23.1973 91.9102 23.5879C91.8646 23.972 91.8288 24.2617 91.8027 24.457L90.4844 24.7012L90.582 26.0977C90.6992 26.0846 90.9661 26.0651 91.3828 26.0391C91.7995 26.013 92.1999 26 92.584 26C93.528 26 94.2832 26.013 94.8496 26.0391C95.4225 26.0651 95.7741 26.0846 95.9043 26.0977L96.002 24.584L94.7031 24.457C94.7031 24.418 94.6738 24.1641 94.6152 23.6953C94.5566 23.2201 94.5273 22.7025 94.5273 22.1426V16.9961L101.021 26H103.727V22.1426V15.1602C103.727 14.9844 103.749 14.7207 103.795 14.3691C103.84 14.0176 103.876 13.7409 103.902 13.5391L105.23 13.4219L105.123 11.8008ZM119.938 13.5391C119.898 13.7539 119.859 14.0306 119.82 14.3691C119.781 14.7077 119.762 14.9714 119.762 15.1602V22.1426C119.762 22.8522 119.82 23.6237 119.938 24.457L121.236 24.584L121.139 26.0977C120.95 26.0846 120.491 26.0651 119.762 26.0391C119.039 26.013 118.206 26 117.262 26C116.878 26 116.477 26.013 116.061 26.0391C115.65 26.0651 115.383 26.0846 115.26 26.0977L115.162 24.7012L116.48 24.457C116.493 24.3789 116.526 24.125 116.578 23.6953C116.63 23.2591 116.656 22.9401 116.656 22.7383V19.9648H111.119V22.1426C111.119 22.8522 111.181 23.6237 111.305 24.457L112.604 24.584L112.506 26.0977C112.317 26.0846 111.858 26.0651 111.129 26.0391C110.406 26.013 109.57 26 108.619 26C108.235 26 107.835 26.013 107.418 26.0391C107.008 26.0651 106.741 26.0846 106.617 26.0977L106.52 24.7012L107.838 24.457C107.851 24.3789 107.883 24.125 107.936 23.6953C107.994 23.2591 108.023 22.9401 108.023 22.7383V15.7559C108.023 15.1699 107.991 14.6654 107.926 14.2422C107.867 13.8125 107.838 13.5781 107.838 13.5391L106.539 13.3047L106.637 11.8008C106.754 11.8138 107.021 11.8333 107.438 11.8594C107.854 11.8854 108.255 11.8984 108.639 11.8984C109.583 11.8984 110.419 11.8854 111.148 11.8594C111.878 11.8333 112.337 11.8138 112.525 11.8008L112.623 13.4219L111.305 13.5391C111.266 13.7539 111.223 14.0306 111.178 14.3691C111.139 14.7077 111.119 14.9714 111.119 15.1602V18.2168L116.656 18.1387V15.7559C116.656 15.1699 116.627 14.6654 116.568 14.2422C116.51 13.8125 116.48 13.5781 116.48 13.5391L115.182 13.3047L115.279 11.8008C115.396 11.8138 115.663 11.8333 116.08 11.8594C116.497 11.8854 116.897 11.8984 117.281 11.8984C118.225 11.8984 119.062 11.8854 119.791 11.8594C120.52 11.8333 120.976 11.8138 121.158 11.8008L121.266 13.4219L119.938 13.5391ZM135.426 26.0977C135.315 26.0846 135.081 26.0651 134.723 26.0391C134.365 26.013 134.039 26 133.746 26C132.757 26 131.878 26.013 131.109 26.0391C130.348 26.0651 129.866 26.0846 129.664 26.0977L129.566 24.6426L130.748 24.457L130.641 23.4219L130.367 22.416H126.588L126.246 23.6953L126.129 24.457L127.281 24.7012L127.184 26.0977C127.053 26.0846 126.764 26.0651 126.314 26.0391C125.865 26.013 125.449 26 125.064 26C124.355 26 123.746 26.013 123.238 26.0391C122.737 26.0651 122.418 26.0846 122.281 26.0977L122.184 24.6426L123.082 24.4961L123.922 22.7773L127.701 11.8984L129.947 11.6836L133.941 23.4414L134.4 24.5156L135.523 24.7012L135.426 26.0977ZM128.561 16.0391L127.125 20.7754L129.84 20.7363L128.561 16.0391Z" fill="#03A688"/>
<path d="M64.041 49.6191C63.1621 49.834 62.3809 50 61.6973 50.1172C61.0202 50.2409 60.3008 50.3027 59.5391 50.3027C58.0221 50.3027 56.7396 50 55.6914 49.3945C54.6432 48.7826 53.8555 47.9232 53.3281 46.8164C52.8008 45.7096 52.5371 44.4238 52.5371 42.959C52.5371 41.4941 52.8008 40.2083 53.3281 39.1016C53.8555 37.9948 54.6465 37.1354 55.7012 36.5234C56.7559 35.9049 58.0352 35.5957 59.5391 35.5957C60.2878 35.5957 60.9518 35.651 61.5312 35.7617C62.1107 35.8659 62.8854 36.0384 63.8555 36.2793L63.6211 39.8633L62.0781 39.7754L62.0195 38.5645C62.0195 38.4342 61.9382 38.1608 61.7754 37.7441C60.9225 37.5553 60.1771 37.4609 59.5391 37.4609C58.3802 37.4609 57.5241 37.9622 56.9707 38.9648C56.4173 39.9609 56.1406 41.2858 56.1406 42.9395C56.1406 44.5931 56.4141 45.9245 56.9609 46.9336C57.5078 47.9362 58.3607 48.4375 59.5195 48.4375C60.2812 48.4375 61.1081 48.3398 62 48.1445C62.026 48.0794 62.0846 47.9199 62.1758 47.666C62.2734 47.4056 62.3223 47.2363 62.3223 47.1582L62.3809 46.2207L63.8848 46.1816L64.041 49.6191ZM77.9961 50.0977C77.8854 50.0846 77.651 50.0651 77.293 50.0391C76.9349 50.013 76.6094 50 76.3164 50C75.3268 50 74.4479 50.013 73.6797 50.0391C72.918 50.0651 72.4362 50.0846 72.2344 50.0977L72.1367 48.6426L73.3184 48.457L73.2109 47.4219L72.9375 46.416H69.1582L68.8164 47.6953L68.6992 48.457L69.8516 48.7012L69.7539 50.0977C69.6237 50.0846 69.334 50.0651 68.8848 50.0391C68.4355 50.013 68.0189 50 67.6348 50C66.9251 50 66.3164 50.013 65.8086 50.0391C65.3073 50.0651 64.9883 50.0846 64.8516 50.0977L64.7539 48.6426L65.6523 48.4961L66.4922 46.7773L70.2715 35.8984L72.5176 35.6836L76.5117 47.4414L76.9707 48.5156L78.0938 48.7012L77.9961 50.0977ZM71.1309 40.0391L69.6953 44.7754L72.4102 44.7363L71.1309 40.0391ZM84.9102 35.8008C84.7279 35.8138 84.2754 35.8333 83.5527 35.8594C82.8366 35.8854 82.0098 35.8984 81.0723 35.8984C80.6751 35.8984 80.2812 35.8854 79.8906 35.8594C79.5065 35.8333 79.2624 35.8138 79.1582 35.8008L79.0508 37.3047L80.291 37.5391C80.291 37.5781 80.3203 37.8125 80.3789 38.2422C80.444 38.6654 80.4766 39.1699 80.4766 39.7559V46.7383C80.4766 46.9401 80.4473 47.2591 80.3887 47.6953C80.3366 48.125 80.304 48.3789 80.291 48.457L79.0312 48.7012L79.1387 50.0977C79.2428 50.0846 79.487 50.0651 79.8711 50.0391C80.2617 50.013 80.6556 50 81.0527 50C81.9837 50 82.8073 50.013 83.5234 50.0391C84.2396 50.0651 84.6888 50.0846 84.8711 50.0977L84.9785 48.584L83.7578 48.457C83.6406 47.6172 83.5788 46.8457 83.5723 46.1426V39.1602C83.5723 38.9714 83.5918 38.7077 83.6309 38.3691C83.6699 38.0306 83.7122 37.7539 83.7578 37.5391L85.0176 37.4219L84.9102 35.8008ZM93.0938 50.0977C92.8789 50.0846 92.3841 50.0651 91.6094 50.0391C90.8411 50.013 89.9883 50 89.0508 50C88.6536 50 88.263 50.013 87.8789 50.0391C87.5013 50.0651 87.2604 50.0846 87.1562 50.0977L87.0586 48.7012L87.8301 48.5352C87.2572 47.6172 86.8665 47.0117 86.6582 46.7188C86.4824 46.5169 86.0039 45.9245 85.2227 44.9414C84.4414 43.9518 83.9173 43.2845 83.6504 42.9395L86.8926 38.457L87.459 37.4219L86.834 37.3047L86.9316 35.8008C87.0358 35.8138 87.2832 35.8333 87.6738 35.8594C88.071 35.8854 88.4714 35.8984 88.875 35.8984C89.793 35.8984 90.5417 35.8854 91.1211 35.8594C91.7005 35.8333 92.0586 35.8138 92.1953 35.8008L92.293 37.4219L91.1309 37.5391C90.5189 38.125 90.0143 38.6393 89.6172 39.082L87.0391 42.5977L88.4746 44.2773L91.1309 47.4219C91.235 47.5521 91.6029 47.8971 92.2344 48.457L93.1914 48.584L93.0938 50.0977ZM94.1094 35.8008C94.2591 35.8138 94.5553 35.8333 94.998 35.8594C95.4473 35.8854 95.8184 35.8984 96.1113 35.8984H101.473C101.648 35.8984 102.023 35.8724 102.596 35.8203C103.169 35.7682 103.556 35.7292 103.758 35.7031L104.129 36.0645L104.275 39.1797L102.83 39.2773C102.752 38.6393 102.693 38.2454 102.654 38.0957C102.615 37.9199 102.547 37.7604 102.449 37.6172C101.915 37.5651 101.391 37.5391 100.877 37.5391H98.6699C98.6178 38.4961 98.5918 39.0365 98.5918 39.1602V42.0215C98.722 42.0345 98.8945 42.041 99.1094 42.041H100.232C100.408 42.041 100.584 42.0182 100.76 41.9727C100.942 41.9271 101.059 41.888 101.111 41.8555L101.297 40.5762L102.537 40.6836L102.518 42.3438C102.518 42.8906 102.524 43.4082 102.537 43.8965C102.55 44.3783 102.563 44.707 102.576 44.8828L101.297 45L101.111 43.7988C101.02 43.7858 100.825 43.763 100.525 43.7305C100.226 43.6979 99.9948 43.6816 99.832 43.6816H99.2168C98.8978 43.6816 98.6895 43.6882 98.5918 43.7012V46.1426C98.5918 46.7546 98.6113 47.4609 98.6504 48.2617H101.15C101.645 48.2617 102.16 48.2064 102.693 48.0957C102.869 47.7767 102.996 47.4902 103.074 47.2363C103.191 46.7806 103.273 46.403 103.318 46.1035L104.715 46.2012L104.412 49.7168L104.031 50.0781C103.829 50.0651 103.484 50.0488 102.996 50.0293C102.514 50.0098 102.101 50 101.756 50H96.1113C95.6296 50.013 95.2031 50.0293 94.832 50.0488C94.4609 50.0684 94.2135 50.0846 94.0898 50.0977L93.9922 48.7012L95.3105 48.457C95.3366 48.3529 95.3724 48.0924 95.418 47.6758C95.4701 47.2526 95.4961 46.9401 95.4961 46.7383V39.7559C95.4961 38.7793 95.4342 38.0404 95.3105 37.5391L94.0117 37.3047L94.1094 35.8008Z" fill="#F2226E"/>
</g>
</g>
<defs>
<clipPath id="clip0_2_2">
<rect width="162" height="67" fill="white"/>
</clipPath>
<clipPath id="clip1_2_2">
<rect width="175" height="78" fill="white" transform="translate(-13)"/>
</clipPath>
</defs>
</svg>
